stateDiagram
    direction TB
    state "One" as 1
    state "Two" as 2
    state "Three" as 3
    state "Four" as 4
    [*]-->1
    1-->2
    2-->3
    3-->4:::customStyle
    4-->[*]
    class 1,3 customStyle
    2:::customStyle
    classDef customStyle fill: black, color: #32cd32, font-weight: bold, stroke-width: 0.25rem, stroke: limegreen, font-style: italic